<svg width="42" height="42" viewBox="0 0 42 42" fill="none" xmlns="http://www.w3.org/2000/svg">
<path d="M22.3125 17.0625C22.3125 16.3376 21.7249 15.75 21 15.75C20.2751 15.75 19.6875 16.3376 19.6875 17.0625V27.0188L16.6781 24.0094C16.1655 23.4969 15.3345 23.4969 14.8219 24.0094C14.3094 24.522 14.3094 25.353 14.8219 25.8656L20.0719 31.1156C20.5845 31.6281 21.4155 31.6281 21.9281 31.1156L27.1781 25.8656C27.6906 25.353 27.6906 24.522 27.1781 24.0094C26.6655 23.4969 25.8345 23.4969 25.3219 24.0094L22.3125 27.0188V17.0625Z" fill="white"/>
<path d="M36.75 36.75V11.8125L24.9375 0H10.5C7.60051 0 5.25 2.3505 5.25 5.25V36.75C5.25 39.6495 7.60051 42 10.5 42H31.5C34.3995 42 36.75 39.6495 36.75 36.75ZM24.9375 7.875C24.9375 10.0496 26.7004 11.8125 28.875 11.8125H34.125V36.75C34.125 38.1997 32.9497 39.375 31.5 39.375H10.5C9.05025 39.375 7.875 38.1997 7.875 36.75V5.25C7.875 3.80025 9.05025 2.625 10.5 2.625H24.9375V7.875Z" fill="white"/>
</svg>
