<svg width="208" height="31" viewBox="0 0 208 31" fill="none" xmlns="http://www.w3.org/2000/svg">
<path d="M27.608 11.4489H20.5057C20.411 10.7197 20.2169 10.0616 19.9233 9.47443C19.6297 8.88731 19.2415 8.38542 18.7585 7.96875C18.2756 7.55208 17.7027 7.23485 17.0398 7.01705C16.3864 6.78977 15.6619 6.67614 14.8665 6.67614C13.4555 6.67614 12.2386 7.02178 11.2159 7.71307C10.2027 8.40436 9.4214 9.40341 8.87216 10.7102C8.33239 12.017 8.0625 13.5985 8.0625 15.4545C8.0625 17.3864 8.33712 19.0057 8.88636 20.3125C9.44508 21.6098 10.2263 22.59 11.2301 23.2528C12.2434 23.9062 13.4413 24.233 14.8239 24.233C15.6004 24.233 16.3059 24.1335 16.9403 23.9347C17.5843 23.7358 18.1477 23.447 18.6307 23.0682C19.1231 22.6799 19.5256 22.2112 19.8381 21.6619C20.16 21.1032 20.3826 20.4735 20.5057 19.7727L27.608 19.8153C27.4848 21.1032 27.1108 22.3722 26.4858 23.6222C25.8703 24.8722 25.0227 26.0133 23.9432 27.0455C22.8636 28.0682 21.5473 28.8826 19.9943 29.4886C18.4508 30.0947 16.6799 30.3977 14.6818 30.3977C12.0492 30.3977 9.69129 29.8201 7.60795 28.6648C5.53409 27.5 3.89583 25.8049 2.69318 23.5795C1.49053 21.3542 0.889205 18.6458 0.889205 15.4545C0.889205 12.2538 1.5 9.54072 2.72159 7.31534C3.94318 5.08996 5.59564 3.39962 7.67898 2.24432C9.76231 1.08901 12.0966 0.511363 14.6818 0.511363C16.4432 0.511363 18.072 0.757575 19.5682 1.25C21.0644 1.73295 22.3807 2.44318 23.517 3.38068C24.6534 4.30871 25.5767 5.44981 26.2869 6.80398C26.9972 8.15814 27.4375 9.70644 27.608 11.4489ZM41.8161 30.4119C39.5244 30.4119 37.5547 29.9432 35.907 29.0057C34.2687 28.0587 33.0045 26.7424 32.1143 25.0568C31.2337 23.3617 30.7933 21.3968 30.7933 19.1619C30.7933 16.9176 31.2337 14.9527 32.1143 13.267C33.0045 11.572 34.2687 10.2557 35.907 9.31818C37.5547 8.37121 39.5244 7.89773 41.8161 7.89773C44.1077 7.89773 46.0727 8.37121 47.7109 9.31818C49.3587 10.2557 50.6229 11.572 51.5036 13.267C52.3937 14.9527 52.8388 16.9176 52.8388 19.1619C52.8388 21.3968 52.3937 23.3617 51.5036 25.0568C50.6229 26.7424 49.3587 28.0587 47.7109 29.0057C46.0727 29.9432 44.1077 30.4119 41.8161 30.4119ZM41.8587 25.1705C42.692 25.1705 43.3975 24.9148 43.9751 24.4034C44.5528 23.892 44.9931 23.1818 45.2962 22.2727C45.6087 21.3636 45.7649 20.3125 45.7649 19.1193C45.7649 17.9072 45.6087 16.8466 45.2962 15.9375C44.9931 15.0284 44.5528 14.3182 43.9751 13.8068C43.3975 13.2955 42.692 13.0398 41.8587 13.0398C40.9969 13.0398 40.2678 13.2955 39.6712 13.8068C39.084 14.3182 38.6342 15.0284 38.3217 15.9375C38.0187 16.8466 37.8672 17.9072 37.8672 19.1193C37.8672 20.3125 38.0187 21.3636 38.3217 22.2727C38.6342 23.1818 39.084 23.892 39.6712 24.4034C40.2678 24.9148 40.9969 25.1705 41.8587 25.1705ZM75.4453 14.8438L69.0675 15.0142C69.0012 14.5597 68.8213 14.1572 68.5277 13.8068C68.2341 13.447 67.8506 13.1676 67.3771 12.9688C66.9131 12.7604 66.3733 12.6562 65.7578 12.6562C64.9529 12.6562 64.2663 12.8172 63.6982 13.1392C63.1394 13.4612 62.8648 13.8968 62.8743 14.446C62.8648 14.8722 63.0353 15.2415 63.3857 15.554C63.7455 15.8665 64.3847 16.1174 65.3033 16.3068L69.5078 17.1023C71.6858 17.5189 73.3052 18.2102 74.3658 19.1761C75.4358 20.142 75.9756 21.4205 75.9851 23.0114C75.9756 24.5076 75.5305 25.8097 74.6499 26.9176C73.7786 28.0256 72.5855 28.8873 71.0703 29.5028C69.5552 30.1089 67.8222 30.4119 65.8714 30.4119C62.7559 30.4119 60.2985 29.7727 58.4993 28.4943C56.7095 27.2064 55.6868 25.483 55.4311 23.3239L62.2919 23.1534C62.4434 23.9489 62.8364 24.5549 63.4709 24.9716C64.1054 25.3883 64.915 25.5966 65.8999 25.5966C66.79 25.5966 67.5144 25.4309 68.0732 25.0994C68.6319 24.768 68.916 24.3277 68.9254 23.7784C68.916 23.286 68.6982 22.893 68.272 22.5994C67.8459 22.2964 67.1783 22.0597 66.2692 21.8892L62.4624 21.1648C60.2749 20.767 58.6461 20.0331 57.576 18.9631C56.5059 17.8835 55.9756 16.5104 55.9851 14.8438C55.9756 13.3854 56.3639 12.1402 57.1499 11.108C57.9358 10.0663 59.0533 9.27083 60.5021 8.72159C61.951 8.17235 63.6603 7.89773 65.63 7.89773C68.5845 7.89773 70.9141 8.51799 72.6186 9.75852C74.3232 10.9896 75.2654 12.6847 75.4453 14.8438ZM79.4048 30V8.18182H86.0099V12.1875H86.2514C86.706 10.8617 87.473 9.81534 88.5526 9.0483C89.6321 8.28125 90.92 7.89773 92.4162 7.89773C93.9313 7.89773 95.2287 8.28598 96.3082 9.0625C97.3878 9.83902 98.0743 10.8807 98.3679 12.1875H98.5952C99.0024 10.8902 99.7978 9.85322 100.982 9.0767C102.165 8.29072 103.562 7.89773 105.172 7.89773C107.236 7.89773 108.912 8.56061 110.2 9.88636C111.488 11.2027 112.132 13.0114 112.132 15.3125V30H105.186V16.9034C105.186 15.8144 104.907 14.9858 104.348 14.4176C103.789 13.84 103.065 13.5511 102.175 13.5511C101.218 13.5511 100.465 13.8636 99.9162 14.4886C99.3764 15.1042 99.1065 15.9328 99.1065 16.9744V30H92.4304V16.8324C92.4304 15.8191 92.1558 15.0189 91.6065 14.4318C91.0573 13.8447 90.3329 13.5511 89.4332 13.5511C88.8272 13.5511 88.2921 13.6979 87.8281 13.9915C87.3641 14.2756 86.9995 14.6828 86.7344 15.2131C86.4787 15.7434 86.3509 16.3684 86.3509 17.0881V30H79.4048ZM126.621 30.4119C124.329 30.4119 122.359 29.9432 120.712 29.0057C119.073 28.0587 117.809 26.7424 116.919 25.0568C116.038 23.3617 115.598 21.3968 115.598 19.1619C115.598 16.9176 116.038 14.9527 116.919 13.267C117.809 11.572 119.073 10.2557 120.712 9.31818C122.359 8.37121 124.329 7.89773 126.621 7.89773C128.912 7.89773 130.877 8.37121 132.516 9.31818C134.163 10.2557 135.428 11.572 136.308 13.267C137.198 14.9527 137.643 16.9176 137.643 19.1619C137.643 21.3968 137.198 23.3617 136.308 25.0568C135.428 26.7424 134.163 28.0587 132.516 29.0057C130.877 29.9432 128.912 30.4119 126.621 30.4119ZM126.663 25.1705C127.497 25.1705 128.202 24.9148 128.78 24.4034C129.357 23.892 129.798 23.1818 130.101 22.2727C130.413 21.3636 130.57 20.3125 130.57 19.1193C130.57 17.9072 130.413 16.8466 130.101 15.9375C129.798 15.0284 129.357 14.3182 128.78 13.8068C128.202 13.2955 127.497 13.0398 126.663 13.0398C125.802 13.0398 125.072 13.2955 124.476 13.8068C123.889 14.3182 123.439 15.0284 123.126 15.9375C122.823 16.8466 122.672 17.9072 122.672 19.1193C122.672 20.3125 122.823 21.3636 123.126 22.2727C123.439 23.1818 123.889 23.892 124.476 24.4034C125.072 24.9148 125.802 25.1705 126.663 25.1705Z" fill="white"/>
<path d="M141.202 30V0.90909H161.06V6.61932H148.233V12.5852H159.795V18.3097H148.233V30H141.202ZM173.183 30.4119C170.892 30.4119 168.922 29.9432 167.274 29.0057C165.636 28.0587 164.372 26.7424 163.482 25.0568C162.601 23.3617 162.161 21.3968 162.161 19.1619C162.161 16.9176 162.601 14.9527 163.482 13.267C164.372 11.572 165.636 10.2557 167.274 9.31818C168.922 8.37121 170.892 7.89773 173.183 7.89773C175.475 7.89773 177.44 8.37121 179.078 9.31818C180.726 10.2557 181.99 11.572 182.871 13.267C183.761 14.9527 184.206 16.9176 184.206 19.1619C184.206 21.3968 183.761 23.3617 182.871 25.0568C181.99 26.7424 180.726 28.0587 179.078 29.0057C177.44 29.9432 175.475 30.4119 173.183 30.4119ZM173.226 25.1705C174.059 25.1705 174.765 24.9148 175.342 24.4034C175.92 23.892 176.36 23.1818 176.663 22.2727C176.976 21.3636 177.132 20.3125 177.132 19.1193C177.132 17.9072 176.976 16.8466 176.663 15.9375C176.36 15.0284 175.92 14.3182 175.342 13.8068C174.765 13.2955 174.059 13.0398 173.226 13.0398C172.364 13.0398 171.635 13.2955 171.038 13.8068C170.451 14.3182 170.001 15.0284 169.689 15.9375C169.386 16.8466 169.234 17.9072 169.234 19.1193C169.234 20.3125 169.386 21.3636 169.689 22.2727C170.001 23.1818 170.451 23.892 171.038 24.4034C171.635 24.9148 172.364 25.1705 173.226 25.1705ZM192.892 8.18182L196.486 15.3693L200.207 8.18182H207.21L201.116 19.0909L207.438 30H200.491L196.486 22.7557L192.58 30H185.534L191.869 19.0909L185.847 8.18182H192.892Z" fill="#F17C10"/>
</svg>
