<svg width="597" height="588" viewBox="0 0 597 588" fill="none" xmlns="http://www.w3.org/2000/svg">
<rect width="597" height="588" rx="30" fill="#2C2C2C"/>
<mask id="path-2-outside-1_254_113" maskUnits="userSpaceOnUse" x="26" y="152" width="547" height="122" fill="black">
<rect fill="white" x="26" y="152" width="547" height="122"/>
<path d="M133.967 197.259H105.735C105.359 194.361 104.587 191.745 103.42 189.411C102.253 187.077 100.71 185.082 98.7901 183.426C96.8704 181.77 94.593 180.509 91.9581 179.643C89.3608 178.739 86.4812 178.288 83.3192 178.288C77.7106 178.288 72.8736 179.662 68.8082 182.409C64.7805 185.157 61.6751 189.129 59.4918 194.323C57.3462 199.518 56.2734 205.804 56.2734 213.182C56.2734 220.861 57.3651 227.298 59.5483 232.492C61.7692 237.649 64.8746 241.545 68.8647 244.18C72.8924 246.777 77.6541 248.076 83.1499 248.076C86.2365 248.076 89.0408 247.681 91.5629 246.89C94.1225 246.1 96.3622 244.952 98.282 243.446C100.239 241.903 101.839 240.039 103.081 237.856C104.361 235.635 105.246 233.132 105.735 230.347L133.967 230.516C133.477 235.635 131.99 240.679 129.506 245.648C127.059 250.617 123.69 255.153 119.399 259.256C115.108 263.321 109.876 266.558 103.702 268.967C97.5668 271.376 90.5277 272.581 82.5852 272.581C72.1207 272.581 62.7479 270.285 54.4666 265.692C46.223 261.062 39.7109 254.325 34.9304 245.479C30.1499 236.633 27.7596 225.867 27.7596 213.182C27.7596 200.459 30.1875 189.674 35.0433 180.828C39.8991 171.983 46.4677 165.263 54.7489 160.671C63.0302 156.079 72.309 153.783 82.5852 153.783C89.5866 153.783 96.0611 154.761 102.009 156.719C107.956 158.638 113.188 161.462 117.705 165.188C122.222 168.877 125.892 173.413 128.716 178.796C131.539 184.179 133.289 190.333 133.967 197.259ZM190.444 272.637C181.334 272.637 173.505 270.774 166.955 267.048C160.443 263.283 155.418 258.051 151.88 251.351C148.379 244.613 146.628 236.802 146.628 227.919C146.628 218.998 148.379 211.187 151.88 204.487C155.418 197.749 160.443 192.516 166.955 188.79C173.505 185.026 181.334 183.143 190.444 183.143C199.553 183.143 207.364 185.026 213.876 188.79C220.426 192.516 225.451 197.749 228.952 204.487C232.49 211.187 234.259 218.998 234.259 227.919C234.259 236.802 232.49 244.613 228.952 251.351C225.451 258.051 220.426 263.283 213.876 267.048C207.364 270.774 199.553 272.637 190.444 272.637ZM190.613 251.803C193.926 251.803 196.73 250.786 199.026 248.754C201.322 246.721 203.073 243.898 204.277 240.284C205.519 236.67 206.141 232.492 206.141 227.749C206.141 222.931 205.519 218.715 204.277 215.102C203.073 211.488 201.322 208.665 199.026 206.632C196.73 204.599 193.926 203.583 190.613 203.583C187.188 203.583 184.289 204.599 181.918 206.632C179.584 208.665 177.796 211.488 176.554 215.102C175.349 218.715 174.747 222.931 174.747 227.749C174.747 232.492 175.349 236.67 176.554 240.284C177.796 243.898 179.584 246.721 181.918 248.754C184.289 250.786 187.188 251.803 190.613 251.803ZM324.12 210.754L298.768 211.431C298.505 209.625 297.79 208.025 296.623 206.632C295.456 205.202 293.931 204.091 292.049 203.301C290.205 202.473 288.059 202.059 285.612 202.059C282.413 202.059 279.684 202.699 277.425 203.978C275.204 205.258 274.113 206.99 274.15 209.173C274.113 210.867 274.79 212.335 276.183 213.577C277.613 214.819 280.154 215.817 283.805 216.57L300.519 219.732C309.176 221.388 315.613 224.136 319.829 227.975C324.082 231.815 326.228 236.896 326.266 243.22C326.228 249.168 324.459 254.343 320.958 258.748C317.495 263.152 312.752 266.577 306.729 269.024C300.707 271.433 293.818 272.637 286.064 272.637C273.68 272.637 263.912 270.097 256.76 265.015C249.645 259.896 245.58 253.045 244.564 244.462L271.835 243.785C272.438 246.947 274 249.356 276.522 251.012C279.044 252.668 282.262 253.496 286.177 253.496C289.715 253.496 292.595 252.838 294.816 251.52C297.037 250.203 298.166 248.452 298.204 246.269C298.166 244.312 297.3 242.75 295.606 241.583C293.912 240.378 291.259 239.437 287.645 238.76L272.513 235.88C263.818 234.299 257.343 231.382 253.09 227.128C248.836 222.837 246.728 217.379 246.766 210.754C246.728 204.957 248.271 200.007 251.396 195.904C254.52 191.763 258.962 188.602 264.721 186.418C270.48 184.235 277.275 183.143 285.104 183.143C296.848 183.143 306.108 185.609 312.884 190.54C319.66 195.434 323.405 202.172 324.12 210.754ZM339.859 271V184.273H366.115V200.195H367.074C368.881 194.925 371.93 190.766 376.221 187.717C380.513 184.668 385.632 183.143 391.579 183.143C397.602 183.143 402.759 184.687 407.05 187.773C411.341 190.86 414.07 195.001 415.237 200.195H416.141C417.759 195.038 420.921 190.917 425.627 187.83C430.332 184.706 435.884 183.143 442.283 183.143C450.489 183.143 457.152 185.778 462.271 191.048C467.39 196.281 469.95 203.47 469.95 212.617V271H442.34V218.941C442.34 214.612 441.229 211.319 439.008 209.06C436.787 206.764 433.908 205.616 430.37 205.616C426.568 205.616 423.575 206.858 421.392 209.342C419.246 211.789 418.173 215.083 418.173 219.223V271H391.636V218.659C391.636 214.631 390.544 211.45 388.361 209.116C386.178 206.783 383.298 205.616 379.722 205.616C377.313 205.616 375.186 206.199 373.342 207.366C371.497 208.495 370.048 210.114 368.994 212.222C367.978 214.33 367.47 216.814 367.47 219.675V271H339.859ZM527.542 272.637C518.433 272.637 510.604 270.774 504.054 267.048C497.542 263.283 492.517 258.051 488.978 251.351C485.477 244.613 483.727 236.802 483.727 227.919C483.727 218.998 485.477 211.187 488.978 204.487C492.517 197.749 497.542 192.516 504.054 188.79C510.604 185.026 518.433 183.143 527.542 183.143C536.652 183.143 544.463 185.026 550.975 188.79C557.524 192.516 562.55 197.749 566.05 204.487C569.589 211.187 571.358 218.998 571.358 227.919C571.358 236.802 569.589 244.613 566.05 251.351C562.55 258.051 557.524 263.283 550.975 267.048C544.463 270.774 536.652 272.637 527.542 272.637ZM527.712 251.803C531.024 251.803 533.829 250.786 536.125 248.754C538.421 246.721 540.171 243.898 541.376 240.284C542.618 236.67 543.239 232.492 543.239 227.749C543.239 222.931 542.618 218.715 541.376 215.102C540.171 211.488 538.421 208.665 536.125 206.632C533.829 204.599 531.024 203.583 527.712 203.583C524.286 203.583 521.388 204.599 519.017 206.632C516.683 208.665 514.895 211.488 513.653 215.102C512.448 218.715 511.846 222.931 511.846 227.749C511.846 232.492 512.448 236.67 513.653 240.284C514.895 243.898 516.683 246.721 519.017 248.754C521.388 250.786 524.286 251.803 527.712 251.803Z"/>
</mask>
<path d="M133.967 197.259H105.735C105.359 194.361 104.587 191.745 103.42 189.411C102.253 187.077 100.71 185.082 98.7901 183.426C96.8704 181.77 94.593 180.509 91.9581 179.643C89.3608 178.739 86.4812 178.288 83.3192 178.288C77.7106 178.288 72.8736 179.662 68.8082 182.409C64.7805 185.157 61.6751 189.129 59.4918 194.323C57.3462 199.518 56.2734 205.804 56.2734 213.182C56.2734 220.861 57.3651 227.298 59.5483 232.492C61.7692 237.649 64.8746 241.545 68.8647 244.18C72.8924 246.777 77.6541 248.076 83.1499 248.076C86.2365 248.076 89.0408 247.681 91.5629 246.89C94.1225 246.1 96.3622 244.952 98.282 243.446C100.239 241.903 101.839 240.039 103.081 237.856C104.361 235.635 105.246 233.132 105.735 230.347L133.967 230.516C133.477 235.635 131.99 240.679 129.506 245.648C127.059 250.617 123.69 255.153 119.399 259.256C115.108 263.321 109.876 266.558 103.702 268.967C97.5668 271.376 90.5277 272.581 82.5852 272.581C72.1207 272.581 62.7479 270.285 54.4666 265.692C46.223 261.062 39.7109 254.325 34.9304 245.479C30.1499 236.633 27.7596 225.867 27.7596 213.182C27.7596 200.459 30.1875 189.674 35.0433 180.828C39.8991 171.983 46.4677 165.263 54.7489 160.671C63.0302 156.079 72.309 153.783 82.5852 153.783C89.5866 153.783 96.0611 154.761 102.009 156.719C107.956 158.638 113.188 161.462 117.705 165.188C122.222 168.877 125.892 173.413 128.716 178.796C131.539 184.179 133.289 190.333 133.967 197.259ZM190.444 272.637C181.334 272.637 173.505 270.774 166.955 267.048C160.443 263.283 155.418 258.051 151.88 251.351C148.379 244.613 146.628 236.802 146.628 227.919C146.628 218.998 148.379 211.187 151.88 204.487C155.418 197.749 160.443 192.516 166.955 188.79C173.505 185.026 181.334 183.143 190.444 183.143C199.553 183.143 207.364 185.026 213.876 188.79C220.426 192.516 225.451 197.749 228.952 204.487C232.49 211.187 234.259 218.998 234.259 227.919C234.259 236.802 232.49 244.613 228.952 251.351C225.451 258.051 220.426 263.283 213.876 267.048C207.364 270.774 199.553 272.637 190.444 272.637ZM190.613 251.803C193.926 251.803 196.73 250.786 199.026 248.754C201.322 246.721 203.073 243.898 204.277 240.284C205.519 236.67 206.141 232.492 206.141 227.749C206.141 222.931 205.519 218.715 204.277 215.102C203.073 211.488 201.322 208.665 199.026 206.632C196.73 204.599 193.926 203.583 190.613 203.583C187.188 203.583 184.289 204.599 181.918 206.632C179.584 208.665 177.796 211.488 176.554 215.102C175.349 218.715 174.747 222.931 174.747 227.749C174.747 232.492 175.349 236.67 176.554 240.284C177.796 243.898 179.584 246.721 181.918 248.754C184.289 250.786 187.188 251.803 190.613 251.803ZM324.12 210.754L298.768 211.431C298.505 209.625 297.79 208.025 296.623 206.632C295.456 205.202 293.931 204.091 292.049 203.301C290.205 202.473 288.059 202.059 285.612 202.059C282.413 202.059 279.684 202.699 277.425 203.978C275.204 205.258 274.113 206.99 274.15 209.173C274.113 210.867 274.79 212.335 276.183 213.577C277.613 214.819 280.154 215.817 283.805 216.57L300.519 219.732C309.176 221.388 315.613 224.136 319.829 227.975C324.082 231.815 326.228 236.896 326.266 243.22C326.228 249.168 324.459 254.343 320.958 258.748C317.495 263.152 312.752 266.577 306.729 269.024C300.707 271.433 293.818 272.637 286.064 272.637C273.68 272.637 263.912 270.097 256.76 265.015C249.645 259.896 245.58 253.045 244.564 244.462L271.835 243.785C272.438 246.947 274 249.356 276.522 251.012C279.044 252.668 282.262 253.496 286.177 253.496C289.715 253.496 292.595 252.838 294.816 251.52C297.037 250.203 298.166 248.452 298.204 246.269C298.166 244.312 297.3 242.75 295.606 241.583C293.912 240.378 291.259 239.437 287.645 238.76L272.513 235.88C263.818 234.299 257.343 231.382 253.09 227.128C248.836 222.837 246.728 217.379 246.766 210.754C246.728 204.957 248.271 200.007 251.396 195.904C254.52 191.763 258.962 188.602 264.721 186.418C270.48 184.235 277.275 183.143 285.104 183.143C296.848 183.143 306.108 185.609 312.884 190.54C319.66 195.434 323.405 202.172 324.12 210.754ZM339.859 271V184.273H366.115V200.195H367.074C368.881 194.925 371.93 190.766 376.221 187.717C380.513 184.668 385.632 183.143 391.579 183.143C397.602 183.143 402.759 184.687 407.05 187.773C411.341 190.86 414.07 195.001 415.237 200.195H416.141C417.759 195.038 420.921 190.917 425.627 187.83C430.332 184.706 435.884 183.143 442.283 183.143C450.489 183.143 457.152 185.778 462.271 191.048C467.39 196.281 469.95 203.47 469.95 212.617V271H442.34V218.941C442.34 214.612 441.229 211.319 439.008 209.06C436.787 206.764 433.908 205.616 430.37 205.616C426.568 205.616 423.575 206.858 421.392 209.342C419.246 211.789 418.173 215.083 418.173 219.223V271H391.636V218.659C391.636 214.631 390.544 211.45 388.361 209.116C386.178 206.783 383.298 205.616 379.722 205.616C377.313 205.616 375.186 206.199 373.342 207.366C371.497 208.495 370.048 210.114 368.994 212.222C367.978 214.33 367.47 216.814 367.47 219.675V271H339.859ZM527.542 272.637C518.433 272.637 510.604 270.774 504.054 267.048C497.542 263.283 492.517 258.051 488.978 251.351C485.477 244.613 483.727 236.802 483.727 227.919C483.727 218.998 485.477 211.187 488.978 204.487C492.517 197.749 497.542 192.516 504.054 188.79C510.604 185.026 518.433 183.143 527.542 183.143C536.652 183.143 544.463 185.026 550.975 188.79C557.524 192.516 562.55 197.749 566.05 204.487C569.589 211.187 571.358 218.998 571.358 227.919C571.358 236.802 569.589 244.613 566.05 251.351C562.55 258.051 557.524 263.283 550.975 267.048C544.463 270.774 536.652 272.637 527.542 272.637ZM527.712 251.803C531.024 251.803 533.829 250.786 536.125 248.754C538.421 246.721 540.171 243.898 541.376 240.284C542.618 236.67 543.239 232.492 543.239 227.749C543.239 222.931 542.618 218.715 541.376 215.102C540.171 211.488 538.421 208.665 536.125 206.632C533.829 204.599 531.024 203.583 527.712 203.583C524.286 203.583 521.388 204.599 519.017 206.632C516.683 208.665 514.895 211.488 513.653 215.102C512.448 218.715 511.846 222.931 511.846 227.749C511.846 232.492 512.448 236.67 513.653 240.284C514.895 243.898 516.683 246.721 519.017 248.754C521.388 250.786 524.286 251.803 527.712 251.803Z" fill="white"/>
<path d="M133.967 197.259V198.259H135.069L134.962 197.162L133.967 197.259ZM105.735 197.259L104.743 197.388L104.857 198.259H105.735V197.259ZM103.42 189.411L102.526 189.858L103.42 189.411ZM98.7901 183.426L99.4434 182.669L98.7901 183.426ZM91.9581 179.643L91.6296 180.587L91.6377 180.59L91.646 180.593L91.9581 179.643ZM68.8082 182.409L68.2482 181.581L68.2447 181.583L68.8082 182.409ZM59.4918 194.323L58.5699 193.936L58.5676 193.941L59.4918 194.323ZM59.5483 232.492L58.6264 232.88L58.6298 232.888L59.5483 232.492ZM68.8647 244.18L68.3136 245.015L68.3228 245.02L68.8647 244.18ZM91.5629 246.89L91.2678 245.935L91.2638 245.936L91.5629 246.89ZM98.282 243.446L98.8991 244.233L98.9011 244.231L98.282 243.446ZM103.081 237.856L102.215 237.357L102.212 237.362L103.081 237.856ZM105.735 230.347L105.741 229.347L104.896 229.342L104.75 230.174L105.735 230.347ZM133.967 230.516L134.962 230.611L135.066 229.523L133.973 229.516L133.967 230.516ZM129.506 245.648L128.612 245.201L128.609 245.206L129.506 245.648ZM119.399 259.256L120.087 259.982L120.09 259.978L119.399 259.256ZM103.702 268.967L103.339 268.036L103.337 268.037L103.702 268.967ZM54.4666 265.692L53.9769 266.564L53.9817 266.567L54.4666 265.692ZM34.9304 245.479L35.8101 245.003L34.9304 245.479ZM35.0433 180.828L34.1667 180.347L35.0433 180.828ZM102.009 156.719L101.696 157.669L101.701 157.67L102.009 156.719ZM117.705 165.188L117.069 165.96L117.073 165.963L117.705 165.188ZM133.967 196.259H105.735V198.259H133.967V196.259ZM106.727 197.13C106.338 194.134 105.537 191.409 104.315 188.964L102.526 189.858C103.637 192.081 104.38 194.587 104.743 197.388L106.727 197.13ZM104.315 188.964C103.09 186.515 101.466 184.414 99.4434 182.669L98.1369 184.183C99.9536 185.75 101.416 187.639 102.526 189.858L104.315 188.964ZM99.4434 182.669C97.4147 180.918 95.0187 179.596 92.2703 178.693L91.646 180.593C94.1674 181.421 96.326 182.621 98.1369 184.183L99.4434 182.669ZM92.2866 178.698C89.5692 177.753 86.5765 177.288 83.3192 177.288V179.288C86.3858 179.288 89.1524 179.726 91.6296 180.587L92.2866 178.698ZM83.3192 177.288C77.5404 177.288 72.5018 178.706 68.2482 181.581L69.3682 183.238C73.2454 180.617 77.8807 179.288 83.3192 179.288V177.288ZM68.2447 181.583C64.0342 184.456 60.816 188.592 58.5699 193.936L60.4137 194.711C62.5342 189.665 65.5269 185.859 69.3718 183.236L68.2447 181.583ZM58.5676 193.941C56.359 199.288 55.2734 205.712 55.2734 213.182H57.2734C57.2734 205.896 58.3335 199.747 60.4161 194.705L58.5676 193.941ZM55.2734 213.182C55.2734 220.949 56.3766 227.527 58.6264 232.88L60.4702 232.105C58.3536 227.069 57.2734 220.773 57.2734 213.182H55.2734ZM58.6298 232.888C60.9141 238.192 64.1343 242.255 68.3136 245.015L69.4158 243.346C65.615 240.836 62.6242 237.106 60.4667 232.097L58.6298 232.888ZM68.3228 245.02C72.5347 247.737 77.4908 249.076 83.1499 249.076V247.076C77.8174 247.076 73.2501 245.818 69.4067 243.34L68.3228 245.02ZM83.1499 249.076C86.3213 249.076 89.2285 248.67 91.8619 247.844L91.2638 245.936C88.8532 246.692 86.1517 247.076 83.1499 247.076V249.076ZM91.8579 247.846C94.5229 247.023 96.8742 245.821 98.8991 244.233L97.6648 242.659C95.8502 244.082 93.7221 245.177 91.2678 245.935L91.8579 247.846ZM98.9011 244.231C100.961 242.607 102.645 240.645 103.95 238.351L102.212 237.362C101.033 239.434 99.5181 241.198 97.6628 242.661L98.9011 244.231ZM103.948 238.355C105.292 236.024 106.213 233.408 106.72 230.52L104.75 230.174C104.279 232.856 103.431 235.247 102.215 237.357L103.948 238.355ZM105.729 231.347L133.961 231.516L133.973 229.516L105.741 229.347L105.729 231.347ZM132.971 230.421C132.494 235.408 131.045 240.333 128.612 245.201L130.4 246.095C132.935 241.025 134.46 235.863 134.962 230.611L132.971 230.421ZM128.609 245.206C126.217 250.063 122.921 254.505 118.708 258.533L120.09 259.978C124.46 255.8 127.901 251.171 130.403 246.09L128.609 245.206ZM118.711 258.53C114.525 262.496 109.406 265.668 103.339 268.036L104.066 269.899C110.345 267.449 115.691 264.146 120.087 259.982L118.711 258.53ZM103.337 268.037C97.3389 270.392 90.4276 271.581 82.5852 271.581V273.581C90.6278 273.581 97.7946 272.361 104.068 269.898L103.337 268.037ZM82.5852 271.581C72.2722 271.581 63.0693 269.32 54.9516 264.818L53.9817 266.567C62.4265 271.25 71.9693 273.581 82.5852 273.581V271.581ZM54.9563 264.821C46.8882 260.289 40.5067 253.694 35.8101 245.003L34.0506 245.954C38.9151 254.955 45.5578 261.836 53.9769 266.564L54.9563 264.821ZM35.8101 245.003C31.1265 236.337 28.7596 225.744 28.7596 213.182H26.7596C26.7596 225.991 29.1732 236.929 34.0506 245.954L35.8101 245.003ZM28.7596 213.182C28.7596 200.584 31.1635 189.974 35.9199 181.31L34.1667 180.347C29.2115 189.374 26.7596 200.334 26.7596 213.182H28.7596ZM35.9199 181.31C40.6912 172.618 47.1287 166.04 55.2339 161.546L54.264 159.797C45.8067 164.487 39.1071 171.347 34.1667 180.347L35.9199 181.31ZM55.2339 161.546C63.3543 157.043 72.4638 154.783 82.5852 154.783V152.783C72.1541 152.783 62.7061 155.115 54.264 159.797L55.2339 161.546ZM82.5852 154.783C89.4929 154.783 95.8605 155.748 101.696 157.669L102.321 155.769C96.2617 153.775 89.6804 152.783 82.5852 152.783V154.783ZM101.701 157.67C107.537 159.554 112.656 162.319 117.069 165.96L118.342 164.417C113.721 160.605 108.375 157.723 102.316 155.767L101.701 157.67ZM117.073 165.963C121.481 169.563 125.067 173.992 127.83 179.26L129.601 178.331C126.718 172.834 122.964 168.191 118.338 164.414L117.073 165.963ZM127.83 179.26C130.585 184.514 132.305 190.54 132.971 197.357L134.962 197.162C134.274 190.126 132.492 183.844 129.601 178.331L127.83 179.26ZM166.955 267.048L166.455 267.913L166.461 267.917L166.955 267.048ZM151.88 251.351L150.992 251.812L150.995 251.818L151.88 251.351ZM151.88 204.487L150.994 204.022L150.993 204.023L151.88 204.487ZM166.955 188.79L167.452 189.658L167.453 189.657L166.955 188.79ZM213.876 188.79L213.376 189.656L213.381 189.659L213.876 188.79ZM228.952 204.487L228.064 204.948L228.067 204.953L228.952 204.487ZM228.952 251.351L228.066 250.886L228.065 250.888L228.952 251.351ZM213.876 267.048L214.373 267.916L214.374 267.915L213.876 267.048ZM199.026 248.754L198.363 248.005L199.026 248.754ZM204.277 240.284L203.332 239.959L203.329 239.968L204.277 240.284ZM204.277 215.102L203.329 215.418L203.332 215.427L204.277 215.102ZM199.026 206.632L199.689 205.883L199.026 206.632ZM181.918 206.632L181.267 205.873L181.261 205.878L181.918 206.632ZM176.554 215.102L175.608 214.776L175.605 214.785L176.554 215.102ZM176.554 240.284L175.605 240.6L175.608 240.609L176.554 240.284ZM181.918 248.754L181.261 249.508L181.267 249.513L181.918 248.754ZM190.444 271.637C181.472 271.637 173.82 269.803 167.45 266.178L166.461 267.917C173.19 271.745 181.197 273.637 190.444 273.637V271.637ZM167.456 266.182C161.108 262.513 156.215 257.419 152.764 250.884L150.995 251.818C154.621 258.683 159.778 264.054 166.455 267.913L167.456 266.182ZM152.767 250.89C149.352 244.317 147.628 236.669 147.628 227.919H145.628C145.628 236.935 147.406 244.909 150.992 251.812L152.767 250.89ZM147.628 227.919C147.628 219.13 149.352 211.483 152.766 204.95L150.993 204.023C147.405 210.89 145.628 218.865 145.628 227.919H147.628ZM152.765 204.951C156.216 198.38 161.108 193.288 167.452 189.658L166.458 187.922C159.779 191.744 154.62 197.118 150.994 204.022L152.765 204.951ZM167.453 189.657C173.823 185.996 181.473 184.143 190.444 184.143V182.143C181.196 182.143 173.187 184.055 166.457 187.923L167.453 189.657ZM190.444 184.143C199.414 184.143 207.045 185.996 213.376 189.656L214.376 187.924C207.683 184.055 199.692 182.143 190.444 182.143V184.143ZM213.381 189.659C219.762 193.289 224.652 198.379 228.064 204.948L229.839 204.025C226.25 197.118 221.089 191.743 214.37 187.921L213.381 189.659ZM228.067 204.953C231.517 211.486 233.259 219.131 233.259 227.919H235.259C235.259 218.864 233.463 210.887 229.836 204.02L228.067 204.953ZM233.259 227.919C233.259 236.667 231.518 244.314 228.066 250.886L229.837 251.816C233.462 244.912 235.259 236.937 235.259 227.919H233.259ZM228.065 250.888C224.653 257.419 219.762 262.511 213.378 266.181L214.374 267.915C221.089 264.055 226.249 258.683 229.838 251.814L228.065 250.888ZM213.379 266.18C207.048 269.803 199.416 271.637 190.444 271.637V273.637C199.69 273.637 207.68 271.745 214.373 267.916L213.379 266.18ZM190.613 252.803C194.149 252.803 197.195 251.71 199.689 249.502L198.363 248.005C196.265 249.862 193.703 250.803 190.613 250.803V252.803ZM199.689 249.502C202.145 247.328 203.979 244.341 205.226 240.6L203.329 239.968C202.166 243.455 200.5 246.114 198.363 248.005L199.689 249.502ZM205.223 240.609C206.509 236.869 207.141 232.577 207.141 227.749H205.141C205.141 232.407 204.53 236.472 203.332 239.959L205.223 240.609ZM207.141 227.749C207.141 222.848 206.509 218.518 205.223 214.776L203.332 215.427C204.53 218.912 205.141 223.014 205.141 227.749H207.141ZM205.226 214.785C203.979 211.045 202.145 208.058 199.689 205.883L198.363 207.381C200.5 209.272 202.166 211.931 203.329 215.418L205.226 214.785ZM199.689 205.883C197.195 203.675 194.149 202.583 190.613 202.583V204.583C193.703 204.583 196.265 205.524 198.363 207.381L199.689 205.883ZM190.613 202.583C186.974 202.583 183.838 203.669 181.267 205.873L182.569 207.391C184.741 205.529 187.402 204.583 190.613 204.583V202.583ZM181.261 205.878C178.767 208.05 176.894 211.036 175.608 214.776L177.5 215.427C178.698 211.94 180.401 209.28 182.575 207.386L181.261 205.878ZM175.605 214.785C174.359 218.524 173.747 222.851 173.747 227.749H175.747C175.747 223.011 176.34 218.907 177.503 215.418L175.605 214.785ZM173.747 227.749C173.747 232.574 174.36 236.863 175.605 240.6L177.503 239.968C176.339 236.478 175.747 232.41 175.747 227.749H173.747ZM175.608 240.609C176.894 244.35 178.767 247.336 181.261 249.508L182.575 247.999C180.401 246.106 178.698 243.445 177.5 239.959L175.608 240.609ZM181.267 249.513C183.838 251.716 186.974 252.803 190.613 252.803V250.803C187.402 250.803 184.741 249.856 182.569 247.994L181.267 249.513ZM324.12 210.754L324.147 211.754L325.205 211.725L325.117 210.671L324.12 210.754ZM298.768 211.431L297.779 211.576L297.907 212.455L298.795 212.431L298.768 211.431ZM296.623 206.632L295.848 207.264L295.856 207.274L296.623 206.632ZM292.049 203.301L291.639 204.213L291.651 204.218L291.662 204.223L292.049 203.301ZM277.425 203.978L276.932 203.108L276.926 203.112L277.425 203.978ZM274.15 209.173L275.15 209.195L275.15 209.175L275.15 209.156L274.15 209.173ZM276.183 213.577L275.517 214.323L275.527 214.332L276.183 213.577ZM283.805 216.57L283.604 217.549L283.612 217.551L283.62 217.552L283.805 216.57ZM300.519 219.732L300.706 218.749L300.704 218.749L300.519 219.732ZM319.829 227.975L319.156 228.714L319.159 228.717L319.829 227.975ZM326.266 243.22L327.266 243.226L327.266 243.214L326.266 243.22ZM320.958 258.748L320.175 258.125L320.172 258.129L320.958 258.748ZM306.729 269.024L307.101 269.952L307.106 269.95L306.729 269.024ZM256.76 265.015L256.176 265.827L256.18 265.83L256.76 265.015ZM244.564 244.462L244.539 243.463L243.442 243.49L243.571 244.58L244.564 244.462ZM271.835 243.785L272.818 243.598L272.659 242.764L271.81 242.785L271.835 243.785ZM276.522 251.012L277.071 250.176L276.522 251.012ZM294.816 251.52L294.306 250.66L294.816 251.52ZM298.204 246.269L299.203 246.286L299.204 246.268L299.203 246.25L298.204 246.269ZM295.606 241.583L295.027 242.398L295.033 242.402L295.039 242.406L295.606 241.583ZM287.645 238.76L287.458 239.742L287.461 239.742L287.645 238.76ZM272.513 235.88L272.7 234.898L272.692 234.896L272.513 235.88ZM253.09 227.128L252.379 227.832L252.382 227.835L253.09 227.128ZM246.766 210.754L247.766 210.76L247.766 210.747L246.766 210.754ZM251.396 195.904L252.191 196.51L252.194 196.506L251.396 195.904ZM264.721 186.418L264.366 185.483L264.721 186.418ZM312.884 190.54L312.296 191.349L312.298 191.351L312.884 190.54ZM324.093 209.754L298.741 210.432L298.795 212.431L324.147 211.754L324.093 209.754ZM299.758 211.287C299.468 209.298 298.676 207.525 297.389 205.99L295.856 207.274C296.903 208.524 297.542 209.951 297.779 211.576L299.758 211.287ZM297.397 206C296.116 204.43 294.453 203.226 292.436 202.379L291.662 204.223C293.409 204.957 294.795 205.974 295.848 207.264L297.397 206ZM292.459 202.389C290.461 201.492 288.171 201.059 285.612 201.059V203.059C287.947 203.059 289.948 203.454 291.639 204.213L292.459 202.389ZM285.612 201.059C282.28 201.059 279.372 201.726 276.932 203.108L277.918 204.848C279.995 203.671 282.546 203.059 285.612 203.059V201.059ZM276.926 203.112C274.456 204.535 273.105 206.573 273.15 209.19L275.15 209.156C275.12 207.406 275.953 205.981 277.924 204.845L276.926 203.112ZM273.151 209.151C273.106 211.169 273.931 212.909 275.517 214.323L276.849 212.831C275.649 211.761 275.12 210.564 275.15 209.195L273.151 209.151ZM275.527 214.332C277.161 215.751 279.918 216.789 283.604 217.549L284.007 215.59C280.391 214.844 278.065 213.887 276.839 212.822L275.527 214.332ZM283.62 217.552L300.333 220.714L300.704 218.749L283.991 215.587L283.62 217.552ZM300.331 220.714C308.898 222.353 315.131 225.049 319.156 228.714L320.502 227.236C316.095 223.222 309.454 220.423 300.706 218.749L300.331 220.714ZM319.159 228.717C323.181 232.348 325.23 237.151 325.266 243.226L327.266 243.214C327.227 236.642 324.984 231.281 320.499 227.233L319.159 228.717ZM325.266 243.214C325.229 248.951 323.529 253.907 320.175 258.125L321.741 259.37C325.389 254.78 327.227 249.384 327.266 243.226L325.266 243.214ZM320.172 258.129C316.833 262.376 312.241 265.705 306.353 268.097L307.106 269.95C313.264 267.449 318.158 263.927 321.744 259.366L320.172 258.129ZM306.358 268.095C300.474 270.449 293.715 271.637 286.064 271.637V273.637C293.921 273.637 300.939 272.417 307.101 269.952L306.358 268.095ZM286.064 271.637C273.805 271.637 264.265 269.121 257.339 264.2L256.18 265.83C263.558 271.072 273.555 273.637 286.064 273.637V271.637ZM257.344 264.203C250.453 259.245 246.54 252.644 245.557 244.345L243.571 244.58C244.62 253.445 248.837 260.546 256.176 265.827L257.344 264.203ZM244.588 245.462L271.86 244.784L271.81 242.785L244.539 243.463L244.588 245.462ZM270.853 243.972C271.502 247.38 273.208 250.032 275.973 251.848L277.071 250.176C274.791 248.679 273.373 246.513 272.818 243.598L270.853 243.972ZM275.973 251.848C278.7 253.639 282.124 254.496 286.177 254.496V252.496C282.4 252.496 279.388 251.698 277.071 250.176L275.973 251.848ZM286.177 254.496C289.831 254.496 292.904 253.817 295.326 252.38L294.306 250.66C292.286 251.858 289.6 252.496 286.177 252.496V254.496ZM295.326 252.38C297.781 250.924 299.159 248.885 299.203 246.286L297.204 246.252C297.173 248.02 296.292 249.482 294.306 250.66L295.326 252.38ZM299.203 246.25C299.159 243.952 298.117 242.098 296.174 240.759L295.039 242.406C296.483 243.401 297.173 244.672 297.204 246.288L299.203 246.25ZM296.186 240.768C294.315 239.438 291.492 238.464 287.829 237.777L287.461 239.742C291.025 240.411 293.509 241.319 295.027 242.398L296.186 240.768ZM287.832 237.777L272.7 234.898L272.326 236.862L287.458 239.742L287.832 237.777ZM272.692 234.896C264.107 233.335 257.853 230.478 253.797 226.421L252.382 227.835C256.833 232.286 263.528 235.263 272.334 236.864L272.692 234.896ZM253.8 226.424C249.752 222.341 247.729 217.147 247.766 210.76L245.766 210.748C245.727 217.611 247.92 223.333 252.379 227.832L253.8 226.424ZM247.766 210.747C247.729 205.143 249.217 200.415 252.191 196.51L250.6 195.298C247.325 199.599 245.727 204.771 245.766 210.76L247.766 210.747ZM252.194 196.506C255.185 192.543 259.459 189.482 265.075 187.353L264.366 185.483C258.464 187.721 253.855 190.984 250.597 195.302L252.194 196.506ZM265.075 187.353C270.695 185.223 277.364 184.143 285.104 184.143V182.143C277.185 182.143 270.265 183.247 264.366 185.483L265.075 187.353ZM285.104 184.143C296.72 184.143 305.747 186.583 312.296 191.349L313.472 189.732C306.469 184.635 296.977 182.143 285.104 182.143V184.143ZM312.298 191.351C318.829 196.067 322.432 202.535 323.124 210.837L325.117 210.671C324.378 201.808 320.49 194.8 313.469 189.729L312.298 191.351ZM339.859 271H338.859V272H339.859V271ZM339.859 184.273V183.273H338.859V184.273H339.859ZM366.115 184.273H367.115V183.273H366.115V184.273ZM366.115 200.195H365.115V201.195H366.115V200.195ZM367.074 200.195V201.195H367.789L368.02 200.52L367.074 200.195ZM376.221 187.717L376.801 188.532L376.221 187.717ZM407.05 187.773L406.466 188.585L407.05 187.773ZM415.237 200.195L414.262 200.414L414.437 201.195H415.237V200.195ZM416.141 200.195V201.195H416.875L417.095 200.495L416.141 200.195ZM425.627 187.83L426.175 188.666L426.18 188.663L425.627 187.83ZM462.271 191.048L461.554 191.745L461.556 191.748L462.271 191.048ZM469.95 271V272H470.95V271H469.95ZM442.34 271H441.34V272H442.34V271ZM439.008 209.06L438.29 209.755L438.295 209.761L439.008 209.06ZM421.392 209.342L420.641 208.682L420.64 208.683L421.392 209.342ZM418.173 271V272H419.173V271H418.173ZM391.636 271H390.636V272H391.636V271ZM388.361 209.116L389.091 208.433L388.361 209.116ZM373.342 207.366L373.864 208.219L373.87 208.215L373.876 208.211L373.342 207.366ZM368.994 212.222L368.1 211.775L368.096 211.781L368.093 211.788L368.994 212.222ZM367.47 271V272H368.47V271H367.47ZM340.859 271V184.273H338.859V271H340.859ZM339.859 185.273H366.115V183.273H339.859V185.273ZM365.115 184.273V200.195H367.115V184.273H365.115ZM366.115 201.195H367.074V199.195H366.115V201.195ZM368.02 200.52C369.763 195.435 372.69 191.453 376.801 188.532L375.642 186.902C371.17 190.079 367.999 194.415 366.128 199.871L368.02 200.52ZM376.801 188.532C380.901 185.619 385.811 184.143 391.579 184.143V182.143C385.452 182.143 380.124 183.717 375.642 186.902L376.801 188.532ZM391.579 184.143C397.423 184.143 402.368 185.638 406.466 188.585L407.634 186.962C403.15 183.736 397.781 182.143 391.579 182.143V184.143ZM406.466 188.585C410.557 191.528 413.148 195.457 414.262 200.414L416.213 199.976C414.993 194.545 412.126 190.192 407.634 186.962L406.466 188.585ZM415.237 201.195H416.141V199.195H415.237V201.195ZM417.095 200.495C418.641 195.568 421.654 191.632 426.175 188.666L425.078 186.994C420.188 190.201 416.878 194.509 415.187 199.896L417.095 200.495ZM426.18 188.663C430.7 185.662 436.054 184.143 442.283 184.143V182.143C435.714 182.143 429.964 183.75 425.073 186.997L426.18 188.663ZM442.283 184.143C450.254 184.143 456.646 186.693 461.554 191.745L462.988 190.352C457.658 184.864 450.725 182.143 442.283 182.143V184.143ZM461.556 191.748C466.45 196.749 468.95 203.663 468.95 212.617H470.95C470.95 203.277 468.331 195.812 462.986 190.349L461.556 191.748ZM468.95 212.617V271H470.95V212.617H468.95ZM469.95 270H442.34V272H469.95V270ZM443.34 271V218.941H441.34V271H443.34ZM443.34 218.941C443.34 214.448 442.185 210.864 439.721 208.359L438.295 209.761C440.273 211.773 441.34 214.776 441.34 218.941H443.34ZM439.727 208.365C437.297 205.852 434.147 204.616 430.37 204.616V206.616C433.669 206.616 436.278 207.676 438.29 209.755L439.727 208.365ZM430.37 204.616C426.328 204.616 423.043 205.948 420.641 208.682L422.143 210.002C424.107 207.767 426.808 206.616 430.37 206.616V204.616ZM420.64 208.683C418.295 211.358 417.173 214.908 417.173 219.223H419.173C419.173 215.257 420.198 212.221 422.144 210.002L420.64 208.683ZM417.173 219.223V271H419.173V219.223H417.173ZM418.173 270H391.636V272H418.173V270ZM392.636 271V218.659H390.636V271H392.636ZM392.636 218.659C392.636 214.446 391.49 210.997 389.091 208.433L387.631 209.8C389.599 211.903 390.636 214.816 390.636 218.659H392.636ZM389.091 208.433C386.695 205.872 383.539 204.616 379.722 204.616V206.616C383.058 206.616 385.66 207.693 387.631 209.8L389.091 208.433ZM379.722 204.616C377.144 204.616 374.828 205.243 372.807 206.521L373.876 208.211C375.545 207.156 377.482 206.616 379.722 206.616V204.616ZM372.82 206.513C370.801 207.749 369.23 209.515 368.1 211.775L369.889 212.669C370.867 210.713 372.193 209.242 373.864 208.219L372.82 206.513ZM368.093 211.788C366.999 214.058 366.47 216.697 366.47 219.675H368.47C368.47 216.932 368.957 214.602 369.895 212.656L368.093 211.788ZM366.47 219.675V271H368.47V219.675H366.47ZM367.47 270H339.859V272H367.47V270ZM504.054 267.048L503.553 267.913L503.559 267.917L504.054 267.048ZM488.978 251.351L488.091 251.812L488.094 251.818L488.978 251.351ZM488.978 204.487L488.093 204.022L488.092 204.023L488.978 204.487ZM504.054 188.79L504.55 189.658L504.552 189.657L504.054 188.79ZM550.975 188.79L550.474 189.656L550.48 189.659L550.975 188.79ZM566.05 204.487L565.163 204.948L565.166 204.953L566.05 204.487ZM566.05 251.351L565.165 250.886L565.164 250.888L566.05 251.351ZM550.975 267.048L551.471 267.916L551.473 267.915L550.975 267.048ZM536.125 248.754L535.462 248.005L536.125 248.754ZM541.376 240.284L540.43 239.959L540.427 239.968L541.376 240.284ZM541.376 215.102L540.427 215.418L540.43 215.427L541.376 215.102ZM536.125 206.632L536.788 205.883L536.125 206.632ZM519.017 206.632L518.366 205.873L518.36 205.878L519.017 206.632ZM513.653 215.102L512.707 214.776L512.704 214.785L513.653 215.102ZM513.653 240.284L512.704 240.6L512.707 240.609L513.653 240.284ZM519.017 248.754L518.36 249.508L518.366 249.513L519.017 248.754ZM527.542 271.637C518.57 271.637 510.919 269.803 504.548 266.178L503.559 267.917C510.288 271.745 518.296 273.637 527.542 273.637V271.637ZM504.554 266.182C498.206 262.513 493.314 257.419 489.862 250.884L488.094 251.818C491.719 258.683 496.877 264.054 503.553 267.913L504.554 266.182ZM489.866 250.89C486.45 244.317 484.727 236.669 484.727 227.919H482.727C482.727 236.935 484.504 244.909 488.091 251.812L489.866 250.89ZM484.727 227.919C484.727 219.13 486.451 211.483 489.864 204.95L488.092 204.023C484.504 210.89 482.727 218.865 482.727 227.919H484.727ZM489.863 204.951C493.315 198.38 498.206 193.288 504.55 189.658L503.557 187.922C496.877 191.744 491.718 197.118 488.093 204.022L489.863 204.951ZM504.552 189.657C510.922 185.996 518.572 184.143 527.542 184.143V182.143C518.294 182.143 510.285 184.055 503.556 187.923L504.552 189.657ZM527.542 184.143C536.513 184.143 544.143 185.996 550.474 189.656L551.475 187.924C544.782 184.055 536.791 182.143 527.542 182.143V184.143ZM550.48 189.659C556.861 193.289 561.75 198.379 565.163 204.948L566.938 204.025C563.349 197.118 558.188 191.743 551.469 187.921L550.48 189.659ZM565.166 204.953C568.616 211.486 570.358 219.131 570.358 227.919H572.358C572.358 218.864 570.561 210.887 566.935 204.02L565.166 204.953ZM570.358 227.919C570.358 236.667 568.616 244.314 565.165 250.886L566.936 251.816C570.561 244.912 572.358 236.937 572.358 227.919H570.358ZM565.164 250.888C561.751 257.419 556.861 262.511 550.476 266.181L551.473 267.915C558.188 264.055 563.348 258.683 566.937 251.814L565.164 250.888ZM550.478 266.18C544.146 269.803 536.515 271.637 527.542 271.637V273.637C536.789 273.637 544.779 271.745 551.471 267.916L550.478 266.18ZM527.712 252.803C531.247 252.803 534.293 251.71 536.788 249.502L535.462 248.005C533.364 249.862 530.801 250.803 527.712 250.803V252.803ZM536.788 249.502C539.244 247.328 541.078 244.341 542.325 240.6L540.427 239.968C539.265 243.455 537.598 246.114 535.462 248.005L536.788 249.502ZM542.322 240.609C543.607 236.869 544.239 232.577 544.239 227.749H542.239C542.239 232.407 541.629 236.472 540.43 239.959L542.322 240.609ZM544.239 227.749C544.239 222.848 543.608 218.518 542.322 214.776L540.43 215.427C541.628 218.912 542.239 223.014 542.239 227.749H544.239ZM542.325 214.785C541.078 211.045 539.244 208.058 536.788 205.883L535.462 207.381C537.598 209.272 539.265 211.931 540.427 215.418L542.325 214.785ZM536.788 205.883C534.293 203.675 531.247 202.583 527.712 202.583V204.583C530.801 204.583 533.364 205.524 535.462 207.381L536.788 205.883ZM527.712 202.583C524.073 202.583 520.936 203.669 518.366 205.873L519.667 207.391C521.84 205.529 524.5 204.583 527.712 204.583V202.583ZM518.36 205.878C515.866 208.05 513.993 211.036 512.707 214.776L514.598 215.427C515.797 211.94 517.499 209.28 519.673 207.386L518.36 205.878ZM512.704 214.785C511.458 218.524 510.846 222.851 510.846 227.749H512.846C512.846 223.011 513.438 218.907 514.601 215.418L512.704 214.785ZM510.846 227.749C510.846 232.574 511.458 236.863 512.704 240.6L514.601 239.968C513.438 236.478 512.846 232.41 512.846 227.749H510.846ZM512.707 240.609C513.993 244.35 515.866 247.336 518.36 249.508L519.673 247.999C517.499 246.106 515.797 243.445 514.598 239.959L512.707 240.609ZM518.366 249.513C520.936 251.716 524.073 252.803 527.712 252.803V250.803C524.5 250.803 521.84 249.856 519.667 247.994L518.366 249.513Z" fill="black" mask="url(#path-2-outside-1_254_113)"/>
<path d="M169.757 425V309.364H248.693V332.062H197.706V355.776H243.667V378.531H197.706V425H169.757ZM296.884 426.637C287.774 426.637 279.945 424.774 273.395 421.048C266.883 417.283 261.858 412.051 258.319 405.351C254.819 398.613 253.068 390.802 253.068 381.919C253.068 372.998 254.819 365.187 258.319 358.487C261.858 351.749 266.883 346.516 273.395 342.79C279.945 339.026 287.774 337.143 296.884 337.143C305.993 337.143 313.804 339.026 320.316 342.79C326.866 346.516 331.891 351.749 335.392 358.487C338.93 365.187 340.699 372.998 340.699 381.919C340.699 390.802 338.93 398.613 335.392 405.351C331.891 412.051 326.866 417.283 320.316 421.048C313.804 424.774 305.993 426.637 296.884 426.637ZM297.053 405.803C300.366 405.803 303.17 404.786 305.466 402.754C307.762 400.721 309.513 397.898 310.717 394.284C311.959 390.67 312.58 386.492 312.58 381.749C312.58 376.931 311.959 372.715 310.717 369.102C309.513 365.488 307.762 362.665 305.466 360.632C303.17 358.599 300.366 357.583 297.053 357.583C293.628 357.583 290.729 358.599 288.358 360.632C286.024 362.665 284.236 365.488 282.994 369.102C281.789 372.715 281.187 376.931 281.187 381.749C281.187 386.492 281.789 390.67 282.994 394.284C284.236 397.898 286.024 400.721 288.358 402.754C290.729 404.786 293.628 405.803 297.053 405.803ZM375.226 338.273L389.511 366.843L404.305 338.273H432.141L407.918 381.636L433.044 425H405.434L389.511 396.204L373.984 425H345.978L371.161 381.636L347.221 338.273H375.226Z" fill="#FF6F18"/>
</svg>
